<svg xmlns="http://www.w3.org/2000/svg" width="164" height="139.886" viewBox="0 0 164 139.886">
  <path id="Path_3744" data-name="Path 3744" d="M2484.627,669.783c.029,0,.059,0,.09,0Zm.09,0,.1-.01Zm29.721-.853c-.029-.007-.059-.014-.09-.019Zm-.088-.021-.087-.019Zm.12.188c.845-.268.946.012,2-.609h.053a2.557,2.557,0,0,0,2.516.816c1.279,1.773,2.258.759,3.15.648a2.9,2.9,0,0,0,.724.846c1.481-.026,2.175.968,3.978.7a3.723,3.723,0,0,0,.721.088,2.711,2.711,0,0,1-.824-1.071l.127-.059c.976,1.871,2.158,2.673,4.071,1.655a3.942,3.942,0,0,0,.883,1.157,2.179,2.179,0,0,0,.694,1.292c.138.057.047.043.364-.055.117.383-1.462,2.293.123,3.537a1.017,1.017,0,0,0,.113,1.212l.171-.069a1.565,1.565,0,0,0,.253,1.082l.445-.106h0c-.685,1.051-1.432,1.871-.577,3.133l.156.005a3.988,3.988,0,0,1,.242-.747,2.3,2.3,0,0,0,.116,1.51l.156.057c.156-.318.3-.671.678-.728a8.689,8.689,0,0,1-.735,2.006l.086.606c-.533.556-1.3.885-1.037,1.87.8.708-.956,2.286.051,3.461-.6.6-.957,1.281-.164,2.153a1.557,1.557,0,0,0-.511,1.4l.128.116c-.853.4-1.775.939-1.364,1.959-.865.428-1.663,1.136-1.428,1.972a1.483,1.483,0,0,0-.981,1.905,7.969,7.969,0,0,0,.744-.352c-.148.638-1.259.7-1.4,1.691l.12.1c-.73,1.263-3.483,2.042-4.367,3.221-1.259-.222-3.475,1.083-3.209,1.7a12.715,12.715,0,0,1-1.425,1.193c-.7-.657-2.275-.029-2.652.768l.077.134.141-.011a2.7,2.7,0,0,0-.637.333,2.055,2.055,0,0,0-2.629.6c-.33.1-.653.235-.99.315a2.116,2.116,0,0,0,.279-.214l-.1-.193a2.289,2.289,0,0,0-2.349.414c-1.021-1-3.269,1.182-4.385,1.208a2.493,2.493,0,0,1,.6-.25c-.024-.845-2.02-1.494-3.248-.007-1.287-.371-3.176.023-4.223-.555a2.332,2.332,0,0,1,.982-.088l.064-.265c-.829-1.764-2.64-.6-3.193-1-1.126.189-.961.34-1.037.091-1.184.021-1.029.055-1.157-.134a6.854,6.854,0,0,1-2.116-.646c.09-.054.181-.106.271-.157-.009-.138-.02-.482-1.116-.659l.17-.151c-.128-.8-1.753-.565-2.281-.591v-.188h-.062c-.41-1.734-1.95-1.488-3.262-1.19l.2-.2a2.791,2.791,0,0,0-.859-.627,3.343,3.343,0,0,1,.54-.028l.1-.148a1.881,1.881,0,0,0-1.218-.893l.086-.139c-.265-1.292-2.263-.5-2.992-.268l.076-.12a1.215,1.215,0,0,0,.581-.221c-.123-.418-.491-.584-.871-.747a3.945,3.945,0,0,1,.423-.025l.074-.149a1.928,1.928,0,0,0-1.047-.864l.19-.1c.015-.184-.019-.446-.853-.856l.223-.086c.033-.193-.028-.46-.832-.882-.2-1.29-1.777-.874-2.654-.842l-.015-.037.169-.383a.962.962,0,0,1-.453-.536c-.3-.239-.637-.427-.776-.8a1.907,1.907,0,0,1,.784.414l.162-.033c-.087-1.849-1.547-1.636-2.8-2.02.061-.214-.034-.166.462-.186-.237-.246-.588-.475-.63-.834a1.82,1.82,0,0,1,1,1.08c1.5-2.183-1.4-2.641-2.655-3l.087-.182a2.021,2.021,0,0,1,1.125.351l.13-.05a1.858,1.858,0,0,0-.453-1.052l.134-.115.1-.222a1.718,1.718,0,0,0-.882-1.189c.269-1.273-1.234-2.222-.907-2.818a7.347,7.347,0,0,0-1.244-.915h0l.135-.4c-.8-.69-.682-.393-.752-.757l.034,0a.5.5,0,0,1,.082.014l.026.023.017-.011c.24.079.4.293.656.333a1.717,1.717,0,0,0-.04-.817c1.025-1.019.752-2.246.115-3.6l.219-.017.176.268.148-.019a1.57,1.57,0,0,0,.028-1.222,7.111,7.111,0,0,0,.993-2.151l.082.163a2.14,2.14,0,0,1-.337.627,1.913,1.913,0,0,0,1.1-2.346c.636-.428.809-1.168,1.349-1.687a6.468,6.468,0,0,0,2.221-1.1,4.047,4.047,0,0,0,2.056-1.193,2.234,2.234,0,0,0,1.04-1.535c.653-.239,2.035-.047,3.5-1.055a3.34,3.34,0,0,0,.823-.036,3.766,3.766,0,0,0,3.517-.884,2.242,2.242,0,0,0,2.362-.391,2.186,2.186,0,0,0,2.274-.518,2.083,2.083,0,0,0,2.143-.171,2.68,2.68,0,0,0,1.86-.184c1.611.229,3.163.54,4.647-.254a1.98,1.98,0,0,0,.721.3,2.3,2.3,0,0,0,3.325-.2c1.511,1.56,1.961,1.214,3.918.213a2.815,2.815,0,0,0,3.032.683A1.764,1.764,0,0,0,2514.47,669.094Zm-56.649-82.027a1.327,1.327,0,0,0,.155.18C2457.92,587.188,2457.869,587.127,2457.821,587.068Zm-29.162-6.833Zm-5.277-1.3Zm2.991-4.668c-3.062-.267-3.311-1.139-5.553.017a3.579,3.579,0,0,0-1.883-.367c-1.8-.149-2.534-.555-4.309.391-1.565-.051-3.008.141-3.06,2.431a2.659,2.659,0,0,0,2.769,2.6c2.28.592,2.622-.278,3.223-.367l.044-.16h0c.758.152,1.5.4,2.271.534a1.747,1.747,0,0,1-.707-.41c1.817.4,2.461,1.378,3.967.207l.138-.019.044-.13,0-.007a.862.862,0,0,1-.081.042,1.712,1.712,0,0,1-.4-.226c.184.04.367.086.551.135h0c1.585.46,3.047,1.005,4.493.638a2.863,2.863,0,0,0,.781.668c2.028-.047,2.749.688,4.059.025,1.558,1.586,2.61.117,3,.084l.014-.076.084-.068c.258.155.511.331.777.457a1.6,1.6,0,0,1-.637-.579l.079-.069c-.031.015-.061.03-.093.044a1.255,1.255,0,0,1-.11-.3c1.642.973,2.146,2.483,3.806,1.581a1.833,1.833,0,0,0,1.765.478,2.583,2.583,0,0,0,3,.191l0-.007c.034-.018.07-.036.1-.055a6.947,6.947,0,0,0,.752.771,1.75,1.75,0,0,1-.583-.794c.519.3,1.147,2.593,3.484,1.738a1.689,1.689,0,0,0,1.614.663,2.069,2.069,0,0,1-.676-.757c1.664.79,1.934,2.253,3.954,1.287h0a10.7,10.7,0,0,0,1.168-.164c.566.474.14.3.918.518.914.587,1.381,1.288,2.326,1.286a2.765,2.765,0,0,0,.215.384c1.129.451,1.885,1.72,3.341,1.273l.011.014.037-.029.059-.019c1.154.645,1.752,1.386,2.977,1.187l0,0c.112-.026.206-.046.275-.063.352.813.566,1.734,1.69,1.836l.142-.064a4.469,4.469,0,0,0,3.441.7,2.347,2.347,0,0,0,2.368,1.635,1.792,1.792,0,0,0,1.16.922,4.366,4.366,0,0,1-.267-.983l.149-.008c.493,1.719,1.154,2.9,3.149,2.632-.3-.117-.341-.407-.359-.728.411.363.627,2.582,2.941,2.455a2.62,2.62,0,0,0,2.437,1.969,1.411,1.411,0,0,0,1.107,1.081l.115-.048a2.3,2.3,0,0,0,1.527.765l.072.007c0,.958.231,1.731,1.9,1.745l.006.008.021-.008h.087l.03-.047h0c.954,1.045,1.831,2.253,3.289,2.5.058,1.168.315,2.108,2.319,1.787a2.273,2.273,0,0,0,2.7,2.032,5.559,5.559,0,0,0,.148.783,1.44,1.44,0,0,1,.1-.91l.153.1c-.1,1.8.044,3.265,2.137,3.475l.1.01a7.788,7.788,0,0,1-.79-.89c.159.134.3.276.458.409l.48-.346h0a12.6,12.6,0,0,0,.261,1.6l.094-.117c1.1.768.692,2.147,2.438,2.49a2.27,2.27,0,0,0,1.8,1.435.854.854,0,0,1,.236-1.116c.146,1.753-.823,3.477,1.5,3.978a2.145,2.145,0,0,0,.852,1.157l.109-.119-.047-.242a2.55,2.55,0,0,0,1.675,1.43c-.156-.294-.307-.592-.457-.891.288.142.478.516.657.779l.033-.153.128-.083a10.252,10.252,0,0,1,.338,1.23,1.291,1.291,0,0,1,.282-.94l.119.177c-.418,1.705-.389,3.449,1.421,3.747a2,2,0,0,0,.776,1.143l.113-.128-.033-.258a2.853,2.853,0,0,0,.82,1.12l.117-.126a1.428,1.428,0,0,1,.293-1.284c.291.577-1.252,2.438.641,3.725.117-.558-.164-.877.2-1.4l.131.124c-.286,1.74-.239,3.249,1.739,3.609-.073,1.454.263,2.706,1.97,2.877l.033,0a2.041,2.041,0,0,0,1.385,2.768c-.134-.347-.255-.7-.378-1.051.53.217.416,1.39,1.261,2.168.3-.349-.116-.884.591-1.435.131.806-1.708,2.455.211,3.9.108-.536-.111-.9.269-1.348l.119.13c-.345,1.817-.416,1.584-.1,1.68.264.819.2,1.58.733,2.246l.467.159a2.338,2.338,0,0,0,1.091,1.248c-.025.289.112-.152.428,1.2.33.206.347.7.424,1.052l.144-.069c.715,1.074-.021,2.19,1.455,3.02-.074-.6-.342-1.153.134-1.632l.108.141c-.36,1.639-.533,3.09,1.448,3.671a5.548,5.548,0,0,1-.443-1.418,4.28,4.28,0,0,1,.448,1.037,1.082,1.082,0,0,1,.518-.811c.062.714-1.825,2.575.1,3.936a1.563,1.563,0,0,0,.375,1.415l.14-.018c.606,1.146-.032,2.217,1.39,3.054a3.245,3.245,0,0,1-.07-1.194l.168.034c.224,1.106-.124,1.127.231,1.022.584,1.076-.212,2.557,1.232,3.183a1.142,1.142,0,0,0,.475,1.267,1.682,1.682,0,0,1,.454-.689c.226.411-.305.63-.12,2.213a3.82,3.82,0,0,0-.828.177,1.839,1.839,0,0,0-1.662-.7c-.457.156-.394-.1-1.183-.092l-.584.1a1.19,1.19,0,0,0-.648-.008c-.346-.108-.671-.265-1.009-.4l.729.75,0,.552c-1.037-1.375-1.164-3.768-3.79-2.516a1.971,1.971,0,0,1,.816.133,4.826,4.826,0,0,0-1.367-.062,2.014,2.014,0,0,0-2.523-.82c-1.976-1.45-3.544-.333-4.329-.207-1.43-2.4-2.793-.511-3.195-.532l-.014.033-.034.022c-1.484-1.651-2-1.053-3.783-.329a2.944,2.944,0,0,0-3.635-.287,2.539,2.539,0,0,0-.769-.28,2.567,2.567,0,0,0-3.131.058,13.257,13.257,0,0,0-1.581.254,2.424,2.424,0,0,0-2.377-.018,5.253,5.253,0,0,0-2.387.16,2.091,2.091,0,0,0-2.533.38,2.2,2.2,0,0,0-2.137.429c-1.333-.489-2.089.189-3.419.982a3.046,3.046,0,0,0-1.145-.077c-1.545-.208-1.7.367-3.539.96-2.879-.046-2.891,1.683-4.2,2.833-1.357.315-1.661.925-2.466,1.175-1.642.659-2.04,2.426-3.065,2.589a1.958,1.958,0,0,0-.886,2.227,2.859,2.859,0,0,0-.9,1.506c-2.724,1.2-1.183,2.794-.335,4.728-.51-.046-.562-.508-.82-.859a1.912,1.912,0,0,0-.146,1.2c-1.429,1.223-.968,2.567.146,4.029v.186a.719.719,0,0,1-.4-.237l-.2.012c-.2,1.6,1.448,2.06,1.519,2.632a1.337,1.337,0,0,1-.41-.1,12.328,12.328,0,0,0,1.277.949h0l-.261.367c.106.164.208.329.3.5l-.073.186a5.476,5.476,0,0,1-.583-.918c-.951,1.838.974,2.645,2.313,3.049l.148.175a1.364,1.364,0,0,1-1.16-.315c-.131.271.1.744.334,1.074-.338.272-.145,1.284.834,1.6-.225,1.4,1.008,2.122,1.875,3.114.494.13,1.295.083,1.714.392-.56.352-.923-.26-1.441-.322.025,2.408,3.5,3.141,5.04,3.386a.776.776,0,0,1-.6.179c0,.427.442.667.756.877l-.251.073c.071.486.547.71.95.911l-.235.088c.1.472.544.682.947.877-.138,0-.277.007-.417.015-.043.725,1.066.7,1.022,1.277.769,1.19,2,.33,3.061.277-.24.108-.457.1-.65.283a1.056,1.056,0,0,0,.5.514l-.1.4c.357.991,1.574,1.256,2.667,1.285l-.1.054c.453,2.47,2.563.7,3.271,1.517a2.054,2.054,0,0,1,1.1.073c-.1.086-.213.167-.322.246.2.456.695.543,1.149.619a.692.692,0,0,0-.273.239c.707,1.027,2.647.589,3.587,1.18,1.2-.018,1.038-.05,1.22.11,1.378-.211,1.1-.353,1.3-.131.342-.042.679-.1,1.019-.159l.088.117a9.284,9.284,0,0,0-1.049.12c.1,1.389,5.019,2.077,7.253,1.4.722,1.193,4.065.416,4.221-.286a2.418,2.418,0,0,0,1.1-.583l-.106.115.05.148a2.184,2.184,0,0,0,2.056-.333l-.008.035c.733.542,2.371.029,3.253-.512v.006c.783.682,2.667.421,2.988-.7l-.141-.04a2.279,2.279,0,0,0,.86-.547c1.616.355,4.84-2.155,4.076-2.538.17-.1.343-.2.508-.305a2.129,2.129,0,0,0,3.229-.906l-.07-.218c-.128.005-.258,0-.387,0,.844-.445,5.082-2.73,4.562-3.888.671-.751,1.724-1.1,1.737-2.212,1.188-.409,2.383-1.429,1.673-2.411a1.678,1.678,0,0,0,.853-1.785l-.055-.029a1.758,1.758,0,0,0,1.262-1.917l-.153-.106a1.636,1.636,0,0,1-.671.344l0-.139c1.014-.87,2.27-1.664,1.306-3.219h-.007a1.7,1.7,0,0,0,.1-2.637l-.2.006a1.278,1.278,0,0,1-.472,1.022c.049-.742.57-1.374.394-2.135l-.157-.051-.354.2-.076-.131c.856-.882,1.358-1.168,1.4-2.444l-.228.141-.116-.116c.5-1.03,1.46-1.615.8-2.924l-.154-.014a2.138,2.138,0,0,1-.232.377,2.169,2.169,0,0,0-.306-1.845l-.141.055a1.438,1.438,0,0,1-.552,1l-.153-.088c.446-.968,1.3-1.493.7-2.635a2.038,2.038,0,0,0-.127-1.128l-.141-.029c-.165.144-.311.305-.463.461l-.181-.084a8.486,8.486,0,0,0,1.187-2.423,2.085,2.085,0,0,0,1.447.505c-.526-.442-1.193-.878-.925-1.673,1.114,1.538,1.136,3.412,3.151,2.911,1.149,2.162,2.614,1.439,3.387,1.64a3.4,3.4,0,0,0,.109.454c1.344.929,1.848,2.774,3.747,2.749a1.624,1.624,0,0,0,1.736,1.3,2.605,2.605,0,0,0,1.672,1.7,2.73,2.73,0,0,0,.673.627l.28-.333.069.026c.609,1.506,1.165,2.623,3.025,2.462.081,1.549.291,2.777,2.615,2.383.048.173.095.344.155.512a1.354,1.354,0,0,1,.068-.552l.011,0-.009-.005.021-.058.144.063c.1,1.4.694,3.254,2.17,3.888,0,.066,0,.135,0,.206.6.113.128,1.537,1.406,2.469l.107-.123-.043-.244a2.443,2.443,0,0,0,2.191,1.512,4.542,4.542,0,0,0,2.126,3.184c-.029-.266-.163-.5-.219-.769l.171,0a4.238,4.238,0,0,1,.219.5l.456-.029h0c-.014,1.3-.133,2.5,1.27,3.143-.029-.273-.162-.516-.216-.791a2.057,2.057,0,0,0,.71.884,1.187,1.187,0,0,1,.451-1.138c.128,1.748-1.779,3.383.879,4.334-.135-.316-.266-.635-.4-.955a2.5,2.5,0,0,0,1.3,1.411,2.044,2.044,0,0,0,1.651,2.064c-.156-.334-.3-.672-.447-1.012,3.881,2.873,4.839-3.318,1.908-4.005a2,2,0,0,0-1.161-1.726l-.243.01a1.939,1.939,0,0,1,.31.764c-.306-.563-.646-1.261-1.282-1.433.254-1.361.249-2.829-1.612-2.938a2.521,2.521,0,0,0-.047-.428c-.918-.417-.468-2.3-1.817-2.431h0l-.189.1c-.293-.352-.323-.276-.6-.21a7.114,7.114,0,0,1-.189-1.078c-1-.156-.432-3.025-2.795-2.75a1.94,1.94,0,0,1,.83,1.067c-.253-.464-.468-.877-.987-1.047a1.185,1.185,0,0,1-.018.722c-.315-.319-.267-.987-.418-1.414a2.111,2.111,0,0,1-.141.888l-.177-.055c.1-1.07.6-3.7-1.443-3.5a3.292,3.292,0,0,1,.348.53l-.021.138c-.229-.257-.436-.526-.642-.8a1.771,1.771,0,0,1-.045.623h-.159c-.208-1.693.138-1.441-.387-1.622-1.168-1.352-1.117-3.358-3.265-3.386-.26-1.353-.988-2.549-2.732-2.369a1.036,1.036,0,0,0-.886-.686c-.522-.594-1.21-.924-1.754-1.51a2.16,2.16,0,0,1,.1.8l-.165.04c-.286-1.519-.516-2.883-2.18-3.05l-.055-.006c-.293-1.151-.874-1.951-2.831-1.36a4.564,4.564,0,0,0-.429-.787,2.625,2.625,0,0,1,.261.84l-.058.021.064,0,0,.011-.194.276c-.4-1.252-.08-3.289-2.126-3.166a2.744,2.744,0,0,0-2.078-.4,1.857,1.857,0,0,1,1.062.59,7.589,7.589,0,0,0-1-.573,2.913,2.913,0,0,1,.365.878l-.168.308c-.626-1.591-.828-3.577-2.812-3.1a1.565,1.565,0,0,0-1.936-.9,2.218,2.218,0,0,0-2.066-.953c-.024-.028-.048-.055-.073-.081l-.276.079h0a3.966,3.966,0,0,0-1.948-1.686c-.21-.6-.148-.491-.555-.562a19.779,19.779,0,0,0,0-2.39l-.184.284h-.2c.091-1.111.884-1.807.014-2.883a2.482,2.482,0,0,0-.388.643l-.219.026c.091-1.189,1.339-3.486-.978-3.757a1.832,1.832,0,0,1,.286,1.287l-.156.052c-.254-.668.122-1.25-.235-1.192-.443-1.136.065-2.1-1.141-3.032l-.28-.011a2.15,2.15,0,0,1,.2,1.056h-.146c-.282-.681-.155-1.356-.554-2.03l-.136-.033-.285.53-.24-.008c.293-1.041,1.8-3.489-.434-3.811.349-1.48.494-3.185-1.46-3.486a1.836,1.836,0,0,0-.972-1.657h-.262a2.021,2.021,0,0,1,.226,1.005l-.144.072a4.642,4.642,0,0,1-.2-1.207c-.181-.1-.129.037-.425-1.082a.952.952,0,0,1-.338-.656l-.441-.1h0c.247-1.32.418-2.306-.859-3.232l-.254,0a1.85,1.85,0,0,1,.236.859c-.164-.53-.3-1.106-.878-1.291a2.272,2.272,0,0,1,.014.541l-.135.063a4.638,4.638,0,0,1-.261-1.1l-.142.414-.224.08c-.037-1,.881-2.789-.65-3.265.323-.8.5-1.6-.449-2.063l-.429.076c-.513-.769-.528-1.969-1.418-2.362.018-.318.012-.264-.164-.282-.726-1.128-.555-2.807-2.209-2.973l-.072-.007c.01-1.223-.28-2.495-1.566-2.772a1.34,1.34,0,0,0-1.08-1.37c.069-.243.587-1.923-.925-1.984a1.513,1.513,0,0,0-.814-.827,1.857,1.857,0,0,1-.09,1.135l-.177-.023c.068-1.468.151-3.2-1.422-3.54-.007-.051-.015-.1-.025-.155l-.062.138c-.039-.007-.079-.012-.119-.018-.685-1.02-1-3.827-2.759-3.547a1.927,1.927,0,0,1,.484.813c-.259-.458-.479-.864-1-1.03a1.253,1.253,0,0,1-.023.933c-.306-.29-.062-2.564-1.607-3.079a1.465,1.465,0,0,0-.026-.254c-1.1-.391-.379-2.349-2.47-2.69-.357-.87-.948-1.625-2.039-1.462.054.037.106.076.155.115a1.115,1.115,0,0,1-.069.493l-.13-.122c-.14-1.388-1.078-3.4-2.656-3.718l-.007-.035c-.084,0-.277,0-.334-.007-.326-1.677-1.23-3.627-3.231-3.558a3.088,3.088,0,0,0-2.333-2.017c.046-.957-.206-1.712-2.228-1.672a1.948,1.948,0,0,1,.919.791c-.19-.213-.772-.943-1.031-.51-.574-.482-.505-.913-.817-.811-.826-.683-1.1-1.58-2.083-1.876-.059-1.41-.55-2.56-2.859-1.868-.272-1.334-.7-2.471-2.788-1.874-.265-1.232-.67-2.4-2.281-2.064-.037-.057-.079-.112-.123-.168-1.1-.221-1.571-1.259-2.741-1.383a1.654,1.654,0,0,0-1.289-1.034,4.237,4.237,0,0,1,.214.737c-.318-.137-1.037-2.76-2.92-2.252-.779-1.243-1.694-2.154-3.782-1.523a2.08,2.08,0,0,0-1.041-.4c.181.312.3.487.5.866l-.091.348c-.457-.752-.359-1.484-1.052-2.172l.235.352-.094.178c-.8-1.356-1.767-2.182-3.31-1.771l-.008-.007-.019.014c-.042.011-.084.023-.127.037a2.421,2.421,0,0,0-3.289-1.194c-.454-1.279-.956-2.284-2.724-1.758l-.04-.032c-.614.4-1.991-1.626-3.653-1.523-1.161.345-.88-.076-1.949.232a2.329,2.329,0,0,0-1.671-.591,3.8,3.8,0,0,1,.78.816l-.014.387c-1.174-1.491-1.654-2.855-3.433-2.136l-.028-.023-.19.119h0a3.8,3.8,0,0,0-4.148-1.375,2.267,2.267,0,0,0-2.34-.453,1.847,1.847,0,0,0-2.255-.46.8.8,0,0,0-.6-.261,2.872,2.872,0,0,0-2.319-.683l-.039.106h0a2.924,2.924,0,0,0-1.773.308c-.711-.86-1.273-1.245-2.877.054h-.009l-.006.012-.091.076C2429.083,575.007,2428.7,573.112,2426.372,574.262Z" transform="translate(-2411.567 -573.695)" fill="#3d4ed7"/>
</svg>
