<svg xmlns="http://www.w3.org/2000/svg" width="159.562" height="147.993" viewBox="0 0 159.562 147.993">
  <path id="Path_3745" data-name="Path 3745" d="M2259.752,873.863l.01.014Zm.01.014.011.015Zm-33.94,36.042c-.655-.927-1.576-.006-2.322-.318a1,1,0,0,0,.3-.26,1.443,1.443,0,0,0-1.763-.156c-.854-1.1-2.777.324-2.244-.352-.519-.711-1.729-.186-2.275.318-.225.026-.447.057-.671.08l-.147-.083c.274-.076.555-.057.815-.149-.112-1.393-1.919-.97-2.752-.392a1.094,1.094,0,0,0-.737-.281l-.123-.012c-.55-.89-1.987.2-2.022-.294-.256-.112-.514-.191-.78-.279a4.235,4.235,0,0,0,.586-.175c-.48-1.213-1.69-.382-2.511-.516a3.937,3.937,0,0,1,.682-.267c-.5-1.221-2.335-.726-3.3-.743-.161-.187-.049-.106-.384-.2l.067-.441c-.285-.7-.94-.7-1.584-.553-.379-1.352-2.344-.683-2.522-.767l.015-.174a8.486,8.486,0,0,0-1.577-.934l.257-.109c-.033-.191-.2-.462-.958-.625l.1-.128c-.284-.553-.831-.578-1.384-.428a1.743,1.743,0,0,0-1.22-.8l.044-.13a.97.97,0,0,0-.542-.444c1.077-.2,1.241-.911,1.862-1.952.225-.073.661-.092.823-1.093a2.087,2.087,0,0,0,1.19-.726c.36.012.988-.667.962-1.686,1.165-.524,1.777-.593,1.911-1.912a1.946,1.946,0,0,0,1.127-1c1.092-.05,1.432-.665,2.149-1.568.288-.253.237-.186.3-.3a1.616,1.616,0,0,0,1.526-1.409,2.071,2.071,0,0,0,1.008-.37c1.483-.333,1.936-1.807,2.444-2.568h0l.232.015c.113-.155,1-.1,1.575-1.106a1.841,1.841,0,0,0,1.1-.193,2.329,2.329,0,0,0,1.738-1.333,2.267,2.267,0,0,0,1.553-1.29c1.274-.364,1.808.012,2.957-1.548a2.4,2.4,0,0,0,.848.014,2.844,2.844,0,0,0,3.092-1.366,2.683,2.683,0,0,0,2.364-1.158c1,.4,1.37.033,2.851-1.257a1.405,1.405,0,0,1-.815.717,8.88,8.88,0,0,0,.9-.4,5.389,5.389,0,0,0,2.454-.717c1.773,1.255,2.034-.149,2.9-.564,1.685.834,1.693-.339,2.758-.466a1.66,1.66,0,0,0,2.211-.019,3.44,3.44,0,0,0,2.761-.177,2.176,2.176,0,0,0,1.716.25,3.858,3.858,0,0,1-.489-.209l-.07-.175a2.6,2.6,0,0,0,2.682.615,3.056,3.056,0,0,0,3.262.092,6.325,6.325,0,0,0,1.149.051,2.028,2.028,0,0,0,.675.668l-.293-.253-.008-.2c.889,1.023,1.7,1.425,2.9,1.025l.013.01a.521.521,0,0,1,.145-.066c.684.942,1.41,1.437,2.6.981.226,1.04.535,1.863,1.983,1.671l0,0,.016-.007.172-.028c.067.137.683,1.385,1.195,1.235.713.763.587.6,1.23.667a2.109,2.109,0,0,0,1.088.6.969.969,0,0,0,.669.736,3.317,3.317,0,0,1,.226-.944l.162.044c-.192,1.131-.67,3.041.948,3.265a1.413,1.413,0,0,0,.091,1.448,1.744,1.744,0,0,0,.574,1.644,1.265,1.265,0,0,0,.079,1.41l.123-.065a1.345,1.345,0,0,1,.623-.756l.107.087c-.687.824-1.821,1.611-.983,2.719l-.042.045c.121.014.046-.031.152.089-.245.469-1.3,1.172-.724,1.693a1.776,1.776,0,0,0-.346,1.368c-.832.467-1.425,1.265-.607,2.193a2.294,2.294,0,0,1,.717-.728c-.509.947-.482.685-.449.916-.165.169-.362.293-.539.444a1.945,1.945,0,0,0-2.02,1.223l.085.13c.095-.008.188-.017.282-.021a9.713,9.713,0,0,0-1.293,1.332c-.9.287-2.205,1.085-2.425,2.043l.053.1c-1.292.255-4,1.371-3.96,2.306l.162.024a2.684,2.684,0,0,0-1.4.5,1.961,1.961,0,0,0-2.323.557,2.764,2.764,0,0,0-2.85,1.558,2.974,2.974,0,0,0-1.087.412l.074-.188c-1.047-.953-4.739.784-6.039,1.081a1.749,1.749,0,0,0-2.188.787l.109.1a5.183,5.183,0,0,0-.675.3,1.15,1.15,0,0,0-1.015-.129.868.868,0,0,0,.321-.3c-.614-.624-1.744-.252-2.315.274-1.043-.547-4.658-.29-6.176.448-.85-1.127-3.125.353-4.281.238l-.028,0A1.471,1.471,0,0,0,2225.823,909.919Zm-47.031,16.275a2.19,2.19,0,0,0,2.794-1.023c-.06.215-.122.43-.2.639,1.637-1.243.446-2.056.377-3.59a1.059,1.059,0,0,1,.391,1c.681-1.506.445-1.227,1.014-1.536a8.461,8.461,0,0,0,1.008-1.718c-.077.2-.154.4-.244.6a2.138,2.138,0,0,0,1-1.587c1.838-1.086.68-2.043.684-3.63.423.342.335.8.306,1.281a2.092,2.092,0,0,0,.578-.83c1.158-.346.28-2.224.389-3.048.31.331.246.689.244,1.11a2.586,2.586,0,0,0,.562-.883,1.985,1.985,0,0,0,1.544-1.693c1.329-.481,1.5-1.484,1.456-2.657a2.039,2.039,0,0,0,1.11-2.029,8.258,8.258,0,0,0,1.578-1.749,2.287,2.287,0,0,0,1.42-2.673h0l.157-.012,0-.021a5.849,5.849,0,0,0,.979-.324l-.394.169-.042.125a1.24,1.24,0,0,0,.786.516,1.8,1.8,0,0,1-.809-.173l-.116.13c.371,1.465,1.682,1.322,2.733.843l-.027.031a1.1,1.1,0,0,0,.847.515c-.078.035-.157.071-.237.105l0,.152a4.817,4.817,0,0,0,3.891,1.27l-.054.15a1.88,1.88,0,0,1-.783-.02l-.092.156a1.571,1.571,0,0,0,2.1.823l-.029.08c.64.934,2.471.956,3.423.655l-.052.117a3.63,3.63,0,0,0,.879.338,3.343,3.343,0,0,1-.478.113l-.045.163c.618.806,1.536.542,2.374.348l-.006.122a2.721,2.721,0,0,1-.544.11l-.046.17c.666.908,2.355.919,3.348.663.093.4.578.444.925.468a1.288,1.288,0,0,0,1.437.224c.7.831,2.5.73,3.467.145l0,.018a2.066,2.066,0,0,0,2-.035c-.1.135-.023.119-.521.224l-.016.2a1.733,1.733,0,0,0,2.279.2c.692.515,1.4.1,2.153.1a1.784,1.784,0,0,1-.36.223c.077.743,2.772.56,4.263-.16a2.043,2.043,0,0,1-.4.212l.027.2a1.438,1.438,0,0,0,1.482.3,29.434,29.434,0,0,1,5.762-.9l.026.164a1.9,1.9,0,0,0,1.643-.225,1.532,1.532,0,0,0,1.25.149c.771.493,2.651-.316,3.1-1.048,1.553.176,4.012-.8,5.45-1.394a2.485,2.485,0,0,0-.389.233c.48.9,1.756.3,2.409-.108.258.242,2.187.126,2.249-1.338a1.369,1.369,0,0,0-.559.021c.3-.105.6-.215.9-.325a1.864,1.864,0,0,0-.352.224c.584.832,1.95.351,2.485-.419a1.739,1.739,0,0,0,1.735-.786c.681-.235,1.586-.248,1.874-1.062l-.1-.116-.146.006c.876-.481,1.73-.824,2.641-1.264a1.776,1.776,0,0,0,2-1.341.927.927,0,0,0-.458,0c.825-.636,3.7-2.166,3.8-3.413a4.14,4.14,0,0,0,.864-.291c.469-.889,2.743-2.125,2.042-3.382.741-.418,1.27-1.085.657-1.994-.19.189-.374.384-.557.58a1.381,1.381,0,0,0,.26-.919,3.052,3.052,0,0,0-.309-.074,2.175,2.175,0,0,1,.512-.658l-.066-.209.007-.05c.886-.612,2.112-1.787.963-2.847.444-.5.756-1.043.13-1.768-.191.306-.285.705-.677.779.136-1.092,1.938-2.345.1-3.342a5.9,5.9,0,0,1-.015.915c-.07-.24-.118-.474-.192-.707l-.442-.028h0c.111-.3.222-.564.313-.847l-.247-.24h0c.469-1.3.623-2.772-.81-3.218a1.492,1.492,0,0,0-.635-1.2l-.128.07a.866.866,0,0,1-.075.526l-.116-.1c-.111-1.461-.519-2.791-2.3-2.688a2.471,2.471,0,0,1,.523.412,2.53,2.53,0,0,0-.551-.405c-1.006-.028-.244-.331-1.1-.193a6,6,0,0,1-.334-.586c-.979-.531-1.083-1.724-2.278-1.845l-.045,0a2.415,2.415,0,0,0-.181-.412l-.157-.016h0c-.854-1.094-1.727-1.554-2.825-1.2-.022-.027-.046-.054-.071-.082-.817.074-1.544-1.13-2.861-.73l-.008-.007-.2.082c-.62-.642-.938-1.355-2.072-1.312a4.83,4.83,0,0,0-3.011.364l-.058-.006c-.094.118-.035.059-.153.139-.833-.545-1.315-1.089-2.49-.555a2.473,2.473,0,0,0-1.608-.284,2.087,2.087,0,0,1,.782.464c-1.565-.529-2.1-1.369-3.43-.374l-.074-.006-.1.145h0c-1.213-.306-1.867-.594-2.693.091a2.382,2.382,0,0,0-2.995.467,2.271,2.271,0,0,0-2.7.5,1.58,1.58,0,0,0-2.383.243,5.838,5.838,0,0,0-3.394,1.169,1.723,1.723,0,0,0-2.366.949c-1.209.414-1.879-.2-2.654,1.41-.6.247-.74-.084-1.476.149-2.234-.144-1.841.843-2.7,1.326-1.422.146-2.37.473-3,1.56a2.267,2.267,0,0,0-1.608,1.317c-.946.311-2.048-.25-2.7,1.248-1.189.354-1.419,1.065-1.835,1.407-.638.793-.047.607-.892,1.23-1.546.592-2.391.235-2.673,1.815a2.476,2.476,0,0,0-1.615,1.376,1.12,1.12,0,0,0-.354.4,2.155,2.155,0,0,0-1.811,1.135c-1.156.342-1.4.873-1.469,1.709-1.182.542-2.311.565-2.191,2.477l-.045.031c-1.985.41-1.708,1.225-1.965,2.939l-.1.008c-.108-.23-.108-.058.08-.866a1.793,1.793,0,0,0-.825.973,2.1,2.1,0,0,0-1.722,1.437,4.905,4.905,0,0,0-1.148.882c-.234-.217-.479-.427-.71-.63a7.7,7.7,0,0,1,.891.371c.219-1.65-1.3-1.4-2.3-1.6.162-1.133-1.822-1.288-2.492-1.883.4-.234.765.074,1.126.282.257-1.553-1.478-1.241-2.1-1.953.289-.184.552,0,.83.15l.089-.106c-.321-1.352-1.211-1.065-2.124-1.223-.1-.564,0-.326-.493-1,.112.021.224.043.335.062.229-.706-1.664-1.242-1.387-1.694-.2-.2-.493-.429-.5-.721a3.464,3.464,0,0,1,.522.324l.1-.085c-.19-1.592-1.781-1.458-1.94-1.753l.1-.323a3.089,3.089,0,0,1-.416-.394l0-.136c.234,0,.666.5.8.682.542-1.3-.375-1.684-1.335-1.918l.042-.037a2.021,2.021,0,0,0-.576-1.3,5.985,5.985,0,0,0,.615.494c.142-1.483-.942-1.777-2.119-2.138l-.111-.149a.882.882,0,0,1,.662.079c-.527-.767-.207-.627-.712-1.155,1.056-1.251.212-2.271-.284-3.522-.082-.057-.161-.109-.24-.157a1.969,1.969,0,0,0-.286-1.5l.119-.015c.131-.689-.437-1.143-.732-1.691.028-.047.054-.1.079-.144l.1.05c-.025-.034-.051-.066-.078-.1.622-1.349-.425-3.112-.2-3.628-.128-.247-.28-.48-.409-.726a1.726,1.726,0,0,0-.224-2.6c1.308-1.047.816-1.717.091-2.411a2.072,2.072,0,0,0,.363-1.581,4.916,4.916,0,0,1,.076.8c.762-.957.319-1.7.236-2.742l.119.027c.1.163.1.321.236.453.722-1.469-.546-1.906-1.01-3.074.433.065.57.421.706.8.037-.479-.071-.3.457-.7a1.827,1.827,0,0,0,.148-1.367,2.293,2.293,0,0,0,.631-1.21,3.957,3.957,0,0,1-.166.675c1.665-1.348.28-2.007.3-3.516a1,1,0,0,1,.422.771,4.45,4.45,0,0,1-.022-1.243,2.016,2.016,0,0,1,.146.734,3.08,3.08,0,0,0,.552-1.075,4.768,4.768,0,0,1-.293.773c1.385-.928.976-2.271,1.382-2.467.169-1.008.068-.871.252-1.039,0-.07-.008-.137-.013-.2a1.478,1.478,0,0,0,.695-1.715c1.154-.731,1.027-2.263,1.4-2.251l.011-.043a3.371,3.371,0,0,0,1.895-3.581l.089-.189a4.463,4.463,0,0,1,.023.82,2.639,2.639,0,0,0,.313-.336c1.413-.739,1.3-1.831,2.087-3.075a4.84,4.84,0,0,1-.1.61,1.765,1.765,0,0,0,.8-1.407c.773-.291,1.093-.9,1.673-1.719.146-.1.115-.039.223-.328,1.162-.395,1.137-1.112,1.385-2.027a1.107,1.107,0,0,1,.184.013l0-.007c1.294.008,1.52-.589,1.8-1.519a3.412,3.412,0,0,0,1.291-.995c1.424-.176,1.555-1.075,2.394-1.9.363-.787-.167-.307.591-1.607.35-.134.332-.078,1.111-.73,1.877-.183,1.445-1.372,2.208-2.854a1.529,1.529,0,0,1-.317,1.049c.994-.856.9-.336,1.9-1.487a4.542,4.542,0,0,0,1.684-.763c1.875-.154,1.439-1.364,2.133-2.113a2.822,2.822,0,0,0,.905-.209c1.172-.082,1.465-.622,2.092-1.365a2.19,2.19,0,0,0,1.1-1.1,4.112,4.112,0,0,0,2.015-.593,3.667,3.667,0,0,0,2.526-1.664c1.085-.134,1.271-.886,2.19-1.769a1.54,1.54,0,0,1-.506.619,2.025,2.025,0,0,0,.634-.652c1.381-.007,2-1.072,3.12-2.127a1.58,1.58,0,0,1-.559.619,11.621,11.621,0,0,0,1.335-.7c1.852.458,1.884-.545,2.828-1.182a8.533,8.533,0,0,0,1.918-.265,3.769,3.769,0,0,0,2.845-1.048,1.9,1.9,0,0,0,1.724-.8,1.664,1.664,0,0,0,1.735-.67c1.046.5,1.713.327,2.481-1.012a1.984,1.984,0,0,0,1.44.276c1.616.067,1.146-.75,3.345-1.283a2.283,2.283,0,0,0,2.425-.233,2.569,2.569,0,0,0,1.544-.408,1.747,1.747,0,0,0,2.3-.467,1.71,1.71,0,0,0,1.534-.346c.829.453,1.474.186,2.362-.52,1.246-.2,1.66.975,3.662-.42a1.914,1.914,0,0,0,1.744-.087,5.515,5.515,0,0,0,3.477-.832,1.615,1.615,0,0,1-.6.134c3.4-.431,2.865-6.551-2.642-3.853a5.75,5.75,0,0,0-1.737.142,1.7,1.7,0,0,1,.711.21c-1.5-.206-2.25-.741-3.289.376l-.133.034-.062.191-.013.016c-1.271-.5-2.325-.885-3.378.092a1.622,1.622,0,0,0-2.118.319,1.55,1.55,0,0,0-1.818.486,1.654,1.654,0,0,0-2.066.339,2.894,2.894,0,0,0-1.761.538,3.978,3.978,0,0,0-4.037.959h-.041l-.1.181h0c-1.769-.5-2.7-.522-3.574.776-.849-.344-1.4-.384-2.024.5a1.778,1.778,0,0,0-1.77.78,2.406,2.406,0,0,0-1.9.89c-1.284.29-4.476.23-5.586,1.858-2.832-.05-3.163,1.451-4.21,2-1.143.019-1.715.169-2.243,1.234a2.443,2.443,0,0,0-.463.564,2.149,2.149,0,0,0-1.8,1.341c-1.007.529-1.022.282-2.224.936-1.181.077-1.749.3-2.2,1.322a4.29,4.29,0,0,0-1.214,1.083c-1.729.337-3.016.74-3.5,2.434a4.881,4.881,0,0,0-1.345.651c-1.58.337-1.48,1.3-2.287,1.338a2.66,2.66,0,0,0-1.762,2.083c-2.219.724-3.677,2.612-3.752,3.843a3.679,3.679,0,0,0-.23.372,3.614,3.614,0,0,0-1.632,1.015c-1.072.3-1.4.8-1.534,1.463a2.511,2.511,0,0,0-2.1,2.141,2.681,2.681,0,0,0-1.731,2.043h0l-.115-.051c-.015.029-.029.059-.043.09-1.34.349-1.524.929-1.572,1.9a2.651,2.651,0,0,0-1.2,1.9c-1.357,1.021-2.147,1.333-2.25,3.341l-.072.024h-.072l-.014.029c-1.3.476-1.192,1.324-1.764,2.34-.218.163-.182.11-.21.259a1.474,1.474,0,0,0-1.082,1.841c-1.156.676-1.172,1.844-.678,3.161l-.071.118a1.756,1.756,0,0,1-.236-.794c-.138.617,0,.9-.286,1.084-.006.032-.012.064-.017.1a1.883,1.883,0,0,0-.94,1.166c-1.016.483-.455,1.562-.6,2.339-.2.311-.2.24-.12.486a2.775,2.775,0,0,0-.607,1.3,1.572,1.572,0,0,1,.2-.722c-1.135.46-1.055,1.419-.75,2.3-1.541,1.331-.219,3.2.583,4.267l-.179.079a1.768,1.768,0,0,1-.6-1.1c-.689.856.019,1.6-.108,2.465-.118-.1-.254-.135-.2-.815-.506.324-.478,1.016-.488,1.543a1.645,1.645,0,0,1,.037-.847c-1.439.716-1.042,1.541-.313,2.258-.912.957-.365,1.92.318,2.8-1.066,1.01-.157,2.319.631,3.156h0l-.207.288c.341.551.236.516.107.668a4.171,4.171,0,0,1,.232.761,2,2,0,0,1-.186.184,2.315,2.315,0,0,0,.146.883,1.7,1.7,0,0,1-.174-1.327c-1.956,1.48-.116,2.8,1.108,3.543l-.016.168a1.745,1.745,0,0,1-.69-.345c.191.318.53.6.6.963a.6.6,0,0,0-.323.057,2.116,2.116,0,0,0,.244.891,1.541,1.541,0,0,1-.331-.48l-.142.175a1.607,1.607,0,0,0,1.066,1.814c-1.595,1.87,1.088,3.1.415,3.522.741.871.716.75.546.879a2.327,2.327,0,0,0,.958,1l-.142.194a1.856,1.856,0,0,0,.328,1.038l-.161.164c-.174.372.187,1.277,1.123,1.475.011,1.268,1.591,1.741,1.416,2.246.38.242.844.27,1.219.5l-.062.135a1.182,1.182,0,0,1-.813-.33l-.117.041c.1,1.252,1.552,1.868,2.27,2.711l-.048.119c-.113-.016-.227-.035-.339-.058l-.062.117c.532,1.5,1.732,1.677,3.041,1.822l.016.132a1.358,1.358,0,0,1-1.026-.191l-.117.065c.252,1.287,1.315,1.022,2.086,1.631l-.164.117a1.739,1.739,0,0,1-.752-.356l-.131.06c.124,1.433,1.26,1.337,2.261,1.715.021.163.062.115-.154.186,1.146.94,1.258,1.262,2.834,1.386l.033.116a1.187,1.187,0,0,1-1.158-.28l-.133.09a1.632,1.632,0,0,0,1.253,1.515,2.149,2.149,0,0,0,.972.974,2.282,2.282,0,0,0-.092.5,8.085,8.085,0,0,0-2.109,2.321c-.584.184-.828,1.022-.815,1.535-1.243.508-1.062,1.393-.806,2.322-1.408.318-1.664.936-1.667,1.809-1.162.626-1.336,1.905-1.827,2.049-.906,1.1-.269,1.766-.181,2.956-.254-.235-.271-.079-.274-1.11-.473.36-.4.74-.669.831a1.568,1.568,0,0,0-.5,1.643c-.879.563-.524,1.635-.981,2.442a1.037,1.037,0,0,1,.226-.915,3.226,3.226,0,0,0-1.38,1.744c-1.388.745-1.613,2.116-1.426,3.68C2177,922.863,2177.323,925.459,2178.792,926.194Z" transform="translate(-1777.446 1566.444) rotate(-60)" fill="#3d4ed7"/>
</svg>
