<svg xmlns="http://www.w3.org/2000/svg" width="940" height="463.158" viewBox="0 0 940 463.158">
  <path id="Path_3743" data-name="Path 3743" d="M-195.671,2433.514c12.92.467,25.825.927,38.733,1.3s25.843.52,38.756.808,25.834.682,38.753.885,25.845.265,38.767.386,25.838,1.229,38.763,1.273,25.853-.171,38.78-.2,25.857.428,38.785.326,25.834-.964,38.763-1.134,25.845-.173,38.774-.407c12.542-.21,25.088-.367,37.63-.618s25.085-.467,37.626-.747,25.085-.465,37.625-.763,25.05-1.273,37.59-1.578,25.119.351,37.658.052,25.048-1.344,37.587-1.625c13.655-.21,27.465.2,41.259-.014s27.568-1.2,41.223-1.416c13.3-.06,26.6-.167,39.9-.185s26.6.444,39.9.482,26.591.619,39.891.728,26.608-.462,39.907-.267,26.6.295,39.894.59,26.591.554,39.884.965,26.657,1.128,39.943,1.668c.26-10.1-.5-20.289-.333-30.391s1.37-20.2,1.449-30.3.991-20.208,1-30.311-2.009-20.205-2.054-30.309,1.2-20.21,1.11-30.314-.02-20.208-.135-30.312-1.393-20.2-1.522-30.3-.746-20.2-.874-30.3.252-20.211.138-30.313.966-20.214.879-30.317-1.62-20.2-1.665-30.3,1.176-20.209,1.187-30.312-1.338-20.212-1.258-30.315,1.986-20.194,2.149-30.3-.533-20.139-.273-30.241c-12.92-.467-25.761-.279-38.669-.654-12.922-.376-25.829-.788-38.742-1.076s-25.817-1.334-38.735-1.537-25.866.579-38.788.457-25.835-1.381-38.76-1.424-25.851.476-38.778.506-25.837.784-38.765.886-25.868-1.12-38.8-.949-25.838.571-38.766.8q-18.813.315-37.628.69c-12.541.251-25.09.339-37.63.62s-25.069.862-37.609,1.16-25.1.087-37.64.391-25.018,2.026-37.558,2.324-25.105-.04-37.645.241c-13.655.21-27.455.189-41.249.4s-27.578.867-41.233,1.077c-13.3.06-26.605-.247-39.905-.229s-26.6-.042-39.9-.08-26.611.765-39.912.655-26.6-.575-39.9-.77-26.554-1.546-39.851-1.842-26.6-.081-39.9-.492-26.253-.423-39.539-.963c-.26,10.1.23,19.947.067,30.05s-.3,20.2-.384,30.3-1.461,20.2-1.472,30.306.723,20.206.768,30.31.135,20.206.222,30.309-.186,20.207-.071,30.311-.32,20.21-.192,30.313.578,20.2.706,30.307-.352,20.209-.237,30.312,1.1,20.2,1.188,30.3-.577,20.209-.532,30.312.073,20.2.062,30.308,1.088,20.209,1.008,30.312-.473,20.205-.636,30.308-1.17,20.194-1.43,30.3C-196.308,2434.157-195.671,2433.514-195.671,2433.514Z" transform="translate(197.158 -1975.148)" fill="#ebedfb"/>
</svg>
