<svg width="200" height="200" viewBox="0 0 200 200" fill="none" xmlns="http://www.w3.org/2000/svg">
<rect width="200" height="200" fill="white"/>
<g clip-path="url(#clip0_8534_41424)">
<mask id="mask0_8534_41424" style="mask-type:luminance" maskUnits="userSpaceOnUse" x="25" y="79" width="150" height="42">
<path d="M175 79.8165H25V120.184H175V79.8165Z" fill="white"/>
</mask>
<g mask="url(#mask0_8534_41424)">
<path fill-rule="evenodd" clip-rule="evenodd" d="M46.7423 98.8479C46.8991 98.8163 46.591 98.8824 46.7423 98.8479ZM57.6697 80.2367L55.2972 79.8425L54.9464 81.9145L57.319 82.3087L57.6697 80.2367ZM57.4535 88.6235C56.5751 88.4765 55.7446 89.0628 55.5983 89.9331C55.452 90.8035 56.0455 91.6282 56.9237 91.7752C57.802 91.9223 58.3316 88.7704 57.4535 88.6235Z" fill="#F49064"/>
<path fill-rule="evenodd" clip-rule="evenodd" d="M78.3694 96.9126C79.2212 96.166 79.4506 95.7764 79.4506 95.3544C79.4506 94.7376 78.9919 94.5429 77.452 94.3805V93.1145H84.8891V94.3805C83.7753 94.5429 83.0217 94.7376 82.1698 95.5817L78.4024 99.0877L85.5446 109.735V110.612H79.2538L73.3565 101.425L78.3694 96.9126ZM67.0662 88.5698L65.2642 87.6608V86.6869L72.1116 85.1938H73.1276V108.08C73.1276 109.118 73.6515 109.248 74.962 109.346V110.612H65.2314V109.346C66.542 109.248 67.0662 109.118 67.0662 108.08V88.5698ZM88.5639 88.3426C88.5639 86.7194 89.7432 85.356 91.7749 85.356C93.7405 85.356 94.9854 86.7194 94.9854 88.3426C94.9854 89.9657 93.7405 91.3615 91.7749 91.3615C89.7432 91.3615 88.5639 89.9657 88.5639 88.3426ZM94.7235 108.08C94.7235 109.118 95.2474 109.248 96.5579 109.346V110.612H86.8639V109.346C88.1744 109.248 88.6951 109.118 88.6951 108.08V96.6854L86.8928 95.5817V94.6727L93.7075 92.7898H94.7235V108.08ZM107.506 106.878C109.439 106.878 110.815 106.229 111.863 104.736L112.585 105.191C111.503 109.151 108.849 110.936 105.18 110.936C100.626 110.936 97.1203 107.723 97.1203 102.399C97.1203 96.9126 100.659 92.7898 106.097 92.7898C109.407 92.7898 112.093 94.0559 112.093 96.9126C112.093 98.1462 111.372 98.9578 110.651 99.2823H107.539C107.637 98.5681 107.67 98.0164 107.67 97.432C107.67 95.5492 107.146 94.2507 105.573 94.2507C103.542 94.2507 102.362 96.8152 102.362 100.159C102.362 104.314 104.23 106.878 107.506 106.878ZM126.607 96.9126C127.459 96.166 127.689 95.7764 127.689 95.3544C127.689 94.7376 127.23 94.5429 125.69 94.3805V93.1145H133.127V94.3805C132.013 94.5429 131.259 94.7376 130.408 95.5817L126.64 99.0877L133.782 109.735V110.612H127.492L121.595 101.425L126.607 96.9126ZM115.304 88.5698L113.502 87.6608V86.6869L120.35 85.1938H121.365V108.08C121.365 109.118 121.89 109.248 123.2 109.346V110.612H113.469V109.346C114.78 109.248 115.304 109.118 115.304 108.08V88.5698ZM153 106.878C153 107.982 153.065 108.469 154.114 108.502L154.9 108.534V109.8L147.987 110.936H146.84L146.939 107.787C145.759 109.281 144.023 110.936 141.107 110.936C138.191 110.936 136.16 109.216 136.16 105.483V97.5295C136.16 96.588 135.93 95.9063 134.882 95.6466L134.39 95.4843V94.3156L141.303 92.8223H142.385L142.188 96.9451V104.898C142.188 106.554 142.843 107.495 144.416 107.495C145.399 107.495 146.054 107.236 146.939 106.846V97.5295C146.939 96.588 146.709 95.9063 145.694 95.6466L145.202 95.4843V94.3156L152.082 92.8223H153.163L153 96.9451V106.878ZM168.902 102.593C168.902 98.3085 167.362 96.3283 164.871 96.3283C164.183 96.3283 163.528 96.4906 162.938 96.8802V106.002C162.938 108.112 163.528 109.411 165.264 109.411C167.624 109.411 168.902 106.424 168.902 102.593ZM156.877 96.6854L155.075 95.5817V94.6727L161.923 92.7898H163.069L162.938 95.9388C163.856 94.4779 165.657 92.7898 168.443 92.7898C172.309 92.7898 175.06 95.4518 175.06 100.776C175.06 107.43 170.966 110.936 165.789 110.936C164.544 110.936 163.495 110.709 162.938 110.255V114.832C162.938 116 163.528 116.065 165.461 116.228V117.494H155.042V116.228C156.353 116.13 156.877 116 156.877 114.962V96.6854Z" fill="#F49064"/>
<path d="M36.1296 98.7111C30.0659 98.3608 27.9337 105.903 27.9337 105.903C27.7272 106.418 27.0465 106.567 26.6495 106.175C25.8928 105.429 25.6427 104.291 26.0321 103.235C26.0321 103.235 28.085 101.899 28.8096 101.644L26.2527 101.596C26.2527 101.596 28.8874 93.9405 38.4192 94.4913C38.4372 94.4994 43.1228 99.6841 43.1228 99.6841L43.4122 94.7885L43.414 94.7868C48.4599 95.0795 51.4376 92.189 52.3205 90.9567L51.4158 96.3018C50.3816 97.3472 48.8819 98.3579 46.7422 98.8479L45.7522 96.3446L44.2346 105.487L40.2332 106.657L50.0567 106.478C50.3832 106.472 50.7033 106.568 50.971 106.754C51.2386 106.939 51.4401 107.204 51.5466 107.51L53.9515 114.425L52.1886 116.014L57.6327 115.835C58.015 115.824 58.3915 115.93 58.711 116.138C59.0305 116.346 59.2777 116.647 59.419 116.999L59.4238 117.011L52.0475 120.183L48.4319 111.866C48.4319 111.866 41.2756 112.881 38.873 111.112C35.4894 108.621 36.1296 98.7111 36.1296 98.7111Z" fill="#F49064"/>
<path fill-rule="evenodd" clip-rule="evenodd" d="M36.3668 109.434C35.7821 110.847 35.2036 112.38 35.2036 112.38L27.2432 109.747L25 116.694L25.0114 116.698C25.3438 116.813 25.7038 116.825 26.0431 116.731C26.3824 116.638 26.6848 116.444 26.9097 116.176L29.9114 112.37L30.1742 114.555L35.995 117.198C36.7329 117.533 37.6078 117.285 38.0541 116.614L40.5068 112.906C39.5496 112.698 38.7939 112.388 38.2285 111.972C37.4296 111.383 36.8249 110.488 36.3668 109.434Z" fill="#F49064"/>
<path d="M42.2644 97.0912L37.7008 92.0224L37.7053 92.0236C36.8482 91.0473 36.359 89.754 36.4413 88.3616C36.6087 85.5303 39.0663 83.3698 41.9298 83.5354C44.7933 83.7007 46.9794 86.1296 46.812 88.9608C46.6673 91.4065 44.812 93.3481 42.4634 93.7252L42.2644 97.0912Z" fill="#F49064"/>
<path fill-rule="evenodd" clip-rule="evenodd" d="M52.0739 102.492L52.4948 103.609L54.0256 101.77L55.6179 92.3609C54.814 91.7843 54.3588 90.79 54.5323 89.7573C54.6138 89.2646 54.8338 88.8048 55.1671 88.4305C55.5004 88.0562 55.9335 87.7826 56.4166 87.6411L57.1089 83.5502L54.7364 83.156L51.6531 101.376L52.0739 102.492Z" fill="#F49064"/>
</g>
</g>
<defs>
<clipPath id="clip0_8534_41424">
<rect width="150" height="40.367" fill="white" transform="translate(25 79.8165)"/>
</clipPath>
</defs>
</svg>
