<svg xmlns="http://www.w3.org/2000/svg" width="67" height="49.894" viewBox="0 0 67 49.894">
  <g id="Group_1596" data-name="Group 1596" transform="translate(0 0)">
    <g id="Group_1348" data-name="Group 1348" transform="translate(0 0)">
      <g id="Group_1346" data-name="Group 1346" transform="translate(35.883 0.03)">
        <path id="Path_2787" data-name="Path 2787" d="M-475.61-614.5c-.561,0-.561-.337-1.121-.337s-.559-.047-1.117-.047-.56.245-1.118.245-.561.128-1.121.128-.56-.283-1.12-.283-.56.172-1.119.172-.558-.01-1.117-.01-.561-.17-1.123-.17-.563.087-1.124.087-.564-.046-1.129-.046-.563.152-1.127.152c-.451,0-.6-.51-.382-.9.175-.316.091-.786.286-1.088s.592-.469.809-.758.2-.769.435-1.043.691-.351.944-.607.432-.558.7-.788.66-.287.937-.5.395-.647.687-.84.586-.4.89-.567.6-.388.914-.538.728-.088,1.054-.218.657-.22.992-.327.7-.051,1.04-.135.608-.47.953-.531.7-.057,1.052-.094.694-.146,1.045-.158c.323-.013.744-.125.744-.449,0-.542-.147-.542-.147-1.085s.1-.542.1-1.086-.028-.545-.028-1.09.087-.545.087-1.089-.315-.545-.315-1.089.054-.546.054-1.093.192-.545.192-1.09-.04-.544-.04-1.089.038-.543.038-1.089-.106-.547-.106-1.094-.087-.547-.087-1.095-.035-.55-.035-1.1.049-.548.049-1.1a.539.539,0,0,0-.539-.6c-.36.007-.728-.2-1.083-.186s-.71.189-1.064.22-.682.337-1.036.38-.763-.293-1.115-.237-.662.374-1.011.442-.69.178-1.037.259-.662.274-1,.367-.747-.025-1.088.079-.612.417-.949.534-.709.126-1.042.255-.634.327-.962.467-.794-.027-1.117.124-.535.538-.852.7-.7.2-1.014.376-.6.4-.9.583-.5.542-.8.737-.57.42-.862.625-.6.374-.887.589-.663.3-.94.53-.622.373-.891.607-.522.491-.782.735-.424.588-.676.841-.589.448-.84.716-.407.62-.647.9-.643.42-.872.7-.5.552-.716.844-.349.657-.56.958-.23.727-.429,1.034-.614.482-.8.8-.383.632-.558.953-.177.737-.34,1.065-.348.644-.5.978-.321.657-.461,1-.078.753-.206,1.1-.368.642-.483.99-.371.651-.474,1-.2.709-.289,1.065.072.768,0,1.127-.15.71-.217,1.071-.163.709-.217,1.073-.027.728-.066,1.094-.226.709-.252,1.074-.025.731-.038,1.1,0,.729,0,1.1c0,.528.037.528.037,1.057s-.094.53-.094,1.061-.013.532-.013,1.064-.174.53-.174,1.059.336.53.336,1.059-.056.531-.056,1.061-.044.533-.044,1.065-.021.532-.021,1.064.127.532.127,1.064-.223.534-.223,1.067.044.532.044,1.065.2.532.2,1.064-.059.532-.059,1.063-.141.535-.141,1.068.178.535.178,1.07-.3.537-.3,1.073.236.536.236,1.073c0,.333.168.648.5.648.547,0,.547-.2,1.092-.2s.547.293,1.092.293.547-.15,1.093-.15.547.087,1.093.087.548-.208,1.1-.208.547.217,1.093.217.547-.239,1.093-.239.547.126,1.093.126.547-.009,1.095-.009.544.124,1.086.124.545-.209,1.089-.209.547.076,1.093.076.548.158,1.1.158.545-.294,1.092-.294.547.124,1.092.124.547.252,1.093.252.55-.321,1.1-.321.548-.031,1.1-.031.548.361,1.1.361.55-.151,1.1-.151.55-.184,1.1-.184.548.281,1.1.281.548-.3,1.1-.3.55.287,1.1.287.551-.037,1.1-.037.553.04,1.105.04.553-.326,1.107-.326c.331,0,.61-.079.61-.412,0-.545-.028-.545-.028-1.091s.026-.545.026-1.089-.065-.545-.065-1.09.153-.547.153-1.092-.094-.542-.094-1.083-.143-.542-.143-1.086.026-.545.026-1.089.242-.547.242-1.094.015-.545.015-1.09-.109-.544-.109-1.087-.185-.545-.185-1.09.2-.548.2-1.1-.2-.547-.2-1.092,0-.547,0-1.093.072-.548.072-1.1.246-.547.246-1.093-.2-.548-.2-1.095.041-.545.041-1.09-.155-.549-.155-1.1-.072-.549-.072-1.1.24-.551.24-1.1.14-.551.14-1.1C-474.847-614.447-475.279-614.5-475.61-614.5Z" transform="translate(505.958 639.122)" fill="#fff"/>
      </g>
      <g id="Group_1347" data-name="Group 1347">
        <path id="Path_2788" data-name="Path 2788" d="M-529.5-589.248c.547,0,.547-.04,1.092-.04s.547-.321,1.092-.321.547.162,1.092.162.548-.08,1.095-.08.548.165,1.095.165.548-.261,1.095-.261.547.214,1.093.214.547.044,1.093.044.547.086,1.095.086.544-.208,1.086-.208.545.247,1.089.247.547-.025,1.093-.025.548-.214,1.1-.214.547-.04,1.093-.04.547-.153,1.092-.153.547.368,1.093.368.55-.13,1.1-.13.548,0,1.1,0,.548.112,1.1.112.55.016,1.1.016.55-.163,1.1-.163.548-.078,1.1-.078.548.034,1.1.034.549.107,1.1.107.551-.224,1.1-.224.553-.044,1.105-.044.553.076,1.105.076c.333,0,.7-.125.7-.458,0-.545.038-.545.038-1.09s-.019-.545-.019-1.089.025-.545.025-1.09-.328-.547-.328-1.092.161-.542.161-1.083-.068-.542-.068-1.086-.038-.545-.038-1.089-.089-.547-.089-1.094.081-.545.081-1.09.04-.544.04-1.087.274-.545.274-1.09-.355-.548-.355-1.1.047-.547.047-1.092.158-.547.158-1.093-.209-.548-.209-1.1.18-.547.18-1.093.06-.548.06-1.095.113-.545.113-1.09-.057-.55-.057-1.1-.021-.55-.021-1.1.1-.551.1-1.1-.04-.551-.04-1.1c0-.333-.426-.6-.759-.6-.56,0-.56-.085-1.12-.085s-.56.192-1.118.192-.56-.234-1.118-.234-.562.053-1.123.053-.56.161-1.12.161-.56-.1-1.12-.1-.558.215-1.117.215-.561-.044-1.124-.044-.562-.274-1.124-.274-.564.229-1.129.229-.565-.153-1.129-.153a.534.534,0,0,1-.5-.808c.174-.318.278-.676.474-.98s.489-.539.706-.828.352-.645.588-.918.485-.542.741-.8.413-.58.674-.807.738-.189,1.014-.4.371-.669.66-.861.754-.09,1.055-.262.6-.323.908-.473.51-.55.83-.679.682-.158,1.011-.265.7-.052,1.034-.137.619-.4.959-.461.694-.06,1.039-.1a2.084,2.084,0,0,0,.947-.19,2.252,2.252,0,0,0,.732-.7c.144-.275-.122-.67-.122-1,0-.535.146-.535.146-1.07s-.085-.537-.085-1.075.1-.536.1-1.073-.122-.536-.122-1.071.285-.539.285-1.077-.078-.536-.078-1.074-.112-.536-.112-1.074.015-.535.015-1.071-.091-.538-.091-1.077.009-.539.009-1.079.116-.542.116-1.083-.1-.541-.1-1.081c0-.339-.171-.822-.51-.816-.358.007-.71.247-1.067.267s-.7.227-1.052.258-.732-.152-1.086-.108-.71.085-1.062.141-.716.069-1.065.137-.69.2-1.036.281-.7.155-1.043.246-.632.379-.973.484-.743.018-1.08.134-.594.449-.926.578-.7.177-1.023.317-.679.227-1,.379-.576.441-.893.6-.793.031-1.105.2-.544.49-.849.675-.644.321-.943.516-.477.565-.769.769-.628.346-.912.561-.491.525-.768.75-.514.486-.782.721-.7.286-.961.529-.573.438-.825.691-.295.733-.544,1-.746.315-.986.592-.435.6-.665.883-.541.515-.761.806-.181.775-.39,1.076-.346.644-.545.952-.626.472-.815.786-.111.778-.287,1.1-.644.486-.809.815-.3.673-.449,1.008-.05.775-.192,1.114-.422.616-.55.961-.184.709-.3,1.058-.252.685-.355,1.037-.441.641-.532,1-.028.75-.106,1.11,0,.744-.06,1.105-.093.72-.145,1.084-.323.7-.361,1.063.223.75.2,1.116-.411.712-.423,1.078.18.738.18,1.107c0,.528.181.528.181,1.057s-.167.53-.167,1.061.013.532.013,1.064.094.53.094,1.059-.224.53-.224,1.059-.147.531-.147,1.061.307.533.307,1.065.119.532.119,1.064-.2.532-.2,1.064.19.534.19,1.067-.007.532-.007,1.065-.311.532-.311,1.064-.1.532-.1,1.063.1.535.1,1.068.162.535.162,1.07.071.536.071,1.073.025.536.025,1.073C-529.95-589.724-529.827-589.248-529.5-589.248Z" transform="translate(530.309 639.133)" fill="#fff"/>
      </g>
    </g>
  </g>
</svg>
