<svg width="200" height="200" viewBox="0 0 200 200" fill="none" xmlns="http://www.w3.org/2000/svg">
<rect width="200" height="200" fill="white"/>
<path d="M120.378 123.981C118.987 123.981 117.596 123.434 116.543 122.38L94.6687 100L116.543 77.6201C117.596 76.5243 118.987 76.0186 120.42 76.0186C123.497 76.0186 125.773 78.5052 125.773 81.3712C125.773 82.7199 125.267 84.1107 124.256 85.1644L109.715 100L124.256 114.836C125.267 115.889 125.773 117.28 125.773 118.629C125.731 121.495 123.455 123.981 120.378 123.981Z" fill="#005857"/>
<path d="M88.5152 123.982C85.565 123.982 83.1626 121.579 83.1626 118.629V81.4134C83.1626 78.4632 85.565 76.0608 88.5152 76.0608C91.4655 76.0608 93.8679 78.4632 93.8679 81.4134V118.629C93.91 121.579 91.5076 123.982 88.5152 123.982Z" fill="#005857"/>
<path d="M155.823 123.939C141.957 123.939 131.294 114.583 131.294 100C131.294 86.8924 140.44 76.0186 155.823 76.0186C160.207 76.0186 164.885 77.1565 168.636 79.3903C170.322 80.4018 171.249 82.172 171.249 84.0264C171.249 86.8081 169.015 89.3791 165.896 89.3791C164.927 89.3791 164 89.1262 163.115 88.6204C161.092 87.4825 158.605 86.5974 155.908 86.5974C147.478 86.5974 142.252 92.3715 142.252 100C142.252 108.134 147.984 113.361 155.908 113.361C158.731 113.361 162.145 112.307 164.295 110.832V105.943H160.712C157.762 105.943 155.36 103.54 155.36 100.59C155.36 97.6398 157.762 95.2374 160.712 95.2374H169.647C172.598 95.2374 175 97.6398 175 100.59V112.939C175 114.541 174.326 116.1 173.188 117.196C168.762 121.537 162.525 123.939 155.823 123.939Z" fill="#005857"/>
<path d="M36.3796 81.7084C36.3796 84.8272 33.8508 87.3982 30.6898 87.3982C27.5709 87.3982 25 84.8694 25 81.7084C25 78.5895 27.5288 76.0186 30.6898 76.0186C33.8087 76.0186 36.3796 78.5895 36.3796 81.7084Z" fill="#2CD5C4"/>
<path d="M71.1087 81.7084C71.1087 84.8272 68.5799 87.3982 65.4189 87.3982C62.3 87.3982 59.7712 84.8272 59.7712 81.7084C59.7712 78.5895 62.3 76.0186 65.461 76.0186C68.5799 76.0186 71.1087 78.5895 71.1087 81.7084Z" fill="#2CD5C4"/>
<path d="M48.0544 123.982C35.4947 123.982 25.2952 113.782 25.2952 101.222V97.5977C25.2952 94.6475 27.6975 92.2451 30.6478 92.2451C33.5981 92.2451 36.0004 94.6475 36.0004 97.5977V101.349C36.0004 107.966 39.9201 113.361 48.0122 113.361C55.5565 113.361 60.024 107.966 60.024 101.349V97.5977C60.024 94.6475 62.4264 92.2451 65.3767 92.2451C68.3269 92.2451 70.7293 94.6475 70.7293 97.5977V101.222C70.8136 113.782 60.6141 123.982 48.0544 123.982Z" fill="#005857"/>
</svg>
